<svg viewBox="0 0 640 400" data-background-color="#ffffff" preserveAspectRatio="xMidYMid meet" height="400" width="640" xmlns="http://www.w3.org/2000/svg" xmlns:xlink="http://www.w3.org/1999/xlink"><rect width="640" height="400" x="0" y="0" opacity="1" fill="#ffffff" data-fill-palette-color="background" id="background"></rect><g id="tight-bounds" transform="matrix(1,0,0,1,122.24000000000001,88.1185156144875)"><svg viewBox="0 0 395.52 223.762968771025" height="223.762968771025" width="395.52"><g><svg viewBox="0 0 395.52 223.762968771025" height="223.762968771025" width="395.52"><g transform="matrix(1,0,0,1,0,147.1035273102699)"><svg viewBox="0 0 395.52 76.65944146075509" height="76.65944146075509" width="395.52"><g id="textblocktransform"><svg viewBox="0 0 395.52 76.65944146075509" height="76.65944146075509" width="395.52" id="textblock"><g><svg viewBox="0 0 395.52 76.65944146075509" height="76.65944146075509" width="395.52"><g transform="matrix(1,0,0,1,0,0)"><svg width="395.52" viewBox="-2.331697940826416 -35.358577728271484 247.1592559814453 47.90424728393555" height="76.65944146075509" data-palette-color="#233565"><path d="M3.157 9.919v0l0.2-2.799c3.045 1.006 5.909 1.269 8.593 0.789v0c1.923-0.344 3.49-1.031 4.701-2.061 1.219-1.024 1.671-2.415 1.356-4.174v0c-0.281-1.568-1.111-2.896-2.491-3.983-1.38-1.087-2.975-1.98-4.787-2.679-1.805-0.7-3.614-1.422-5.427-2.168-1.82-0.744-3.44-1.775-4.86-3.092-1.42-1.31-2.296-2.894-2.629-4.751v0c-0.405-2.264 0.039-4.477 1.332-6.638 1.293-2.162 3.091-3.448 5.394-3.861v0c1.759-0.315 3.78-0.314 6.065 0.001 2.278 0.317 4.215 0.695 5.811 1.134v0l-0.228 2.022c-3.865-0.595-7.045-0.669-9.538-0.223v0c-1.536 0.275-2.756 1.005-3.662 2.189-0.912 1.186-1.228 2.563-0.947 4.132v0c0.211 1.181 0.708 2.196 1.49 3.045 0.775 0.85 1.715 1.539 2.818 2.066 1.097 0.528 2.306 1.023 3.628 1.484 1.314 0.456 2.634 0.961 3.959 1.516 1.319 0.556 2.543 1.194 3.675 1.913 1.138 0.717 2.13 1.701 2.976 2.951 0.853 1.249 1.432 2.72 1.735 4.414v0c0.43 2.402 0.013 4.498-1.252 6.289-1.264 1.791-3.127 2.906-5.587 3.346v0c-2.107 0.377-4.404 0.483-6.892 0.32-2.488-0.164-4.299-0.558-5.433-1.182zM35.53-16.469v0l0.85 2.089c-0.861 0.193-2.169 0.555-3.924 1.088-1.761 0.539-3.088 0.905-3.983 1.095v0c0.329 1.104 0.644 2.567 0.942 4.39 0.3 1.829 0.571 3.407 0.811 4.733 0.24 1.326 0.58 2.637 1.018 3.934 0.432 1.298 1.079 2.248 1.941 2.85 0.855 0.596 1.926 0.801 3.212 0.613v0c0.963-0.14 2.134-0.543 3.513-1.209v0c0.788 1.105 1.366 1.906 1.735 2.405v0c-2.408 1.274-4.915 2.101-7.521 2.481v0c-0.963 0.14-1.84-0.028-2.631-0.506-0.79-0.471-1.442-1.114-1.958-1.928-0.509-0.808-0.979-1.865-1.412-3.17-0.438-1.297-0.777-2.534-1.016-3.712-0.232-1.179-0.461-2.54-0.686-4.084v0c-0.121-0.831-0.283-1.987-0.485-3.466-0.202-1.48-0.343-2.493-0.423-3.041v0c-0.312 0.079-1.064 0.212-2.256 0.4-1.186 0.186-1.874 0.293-2.065 0.321v0c-0.538-2.118-0.811-3.21-0.821-3.276v0c0.234 0.033 0.608 0.012 1.123-0.063v0c0.29-0.042 0.752-0.133 1.385-0.272 0.64-0.14 1.118-0.234 1.435-0.28v0c0.132-0.019 0.301-0.037 0.507-0.054 0.213-0.018 0.353-0.031 0.419-0.041v0c-0.389-3.548-0.662-6.442-0.821-8.682v0l2.244 0.209c0.145 0.767 0.289 1.592 0.431 2.473 0.149 0.881 0.308 1.858 0.478 2.932 0.17 1.073 0.297 1.9 0.381 2.481v0c0.847-0.056 2.11-0.176 3.788-0.36 1.685-0.178 2.948-0.295 3.789-0.35zM53.091-19.513v0l2.376 0.158 0.058 0.487c0.262 2.191 0.842 5.882 1.74 11.071 0.904 5.189 1.638 9.187 2.202 11.994v0c-0.618 0.336-1.215 0.538-1.791 0.607v0c-0.516 0.062-1.108 0.052-1.776-0.029v0l-0.538-1.215c-1.919 1.412-3.815 2.23-5.689 2.455v0c-1.383 0.166-2.624-0.015-3.72-0.542-1.09-0.521-1.966-1.225-2.63-2.112-0.663-0.881-1.237-2.004-1.723-3.369-0.492-1.364-0.847-2.614-1.064-3.75-0.217-1.136-0.41-2.412-0.579-3.828v0c-0.495-4.13-0.691-7.951-0.588-11.462v0l2.233 0.226c0.353 1.039 0.604 2.187 0.755 3.445v0c0.085 0.708 0.192 1.938 0.321 3.688 0.123 1.751 0.238 3.077 0.345 3.977v0c0.19 1.582 0.426 2.937 0.709 4.065 0.283 1.128 0.691 2.207 1.224 3.237 0.533 1.031 1.255 1.787 2.165 2.269 0.903 0.476 1.983 0.639 3.241 0.488v0c1.423-0.171 2.917-0.675 4.482-1.514v0c-0.077-1.199-0.38-4.262-0.909-9.187-0.523-4.926-0.804-8.646-0.844-11.159zM77.91-34.556l2.631 38.395-2.716-0.311c-0.055-0.644-0.113-1.128-0.174-1.45v0c-1.62 1.248-3.383 1.954-5.289 2.115v0c-2.943 0.25-5.338-0.818-7.187-3.203-1.849-2.385-2.909-5.179-3.181-8.381v0c-0.141-1.654-0.153-3.219-0.038-4.693 0.122-1.476 0.417-3.006 0.884-4.592 0.467-1.592 1.3-2.894 2.499-3.905 1.205-1.012 2.711-1.595 4.518-1.749v0c1.78-0.151 3.485 0.142 5.113 0.88v0c-0.032-3.45-0.197-6.922-0.494-10.415v0c-0.135-1.588-0.251-2.752-0.347-3.494v0c1.579 0.16 2.84 0.428 3.781 0.803zM76.991-1.088v0l-1.468-15.622c-0.46-0.77-1.122-1.357-1.986-1.758-0.864-0.402-1.764-0.563-2.701-0.483v0c-1.262 0.107-2.304 0.604-3.125 1.49-0.821 0.886-1.361 2.016-1.618 3.389-0.258 1.373-0.411 2.648-0.458 3.823-0.047 1.182-0.015 2.42 0.094 3.715v0c0.467 5.494 2.544 8.084 6.231 7.771v0c1.229-0.104 2.34-0.37 3.334-0.796 0.988-0.425 1.553-0.935 1.697-1.529zM103.901-3.311v0l0.594 2.114c-1.4 0.589-3.489 1.268-6.269 2.037-2.773 0.769-4.838 1.187-6.196 1.253v0c-1.398 0.068-2.639-0.335-3.723-1.21-1.077-0.875-1.911-2.023-2.501-3.443-0.589-1.413-1.042-2.819-1.356-4.219-0.308-1.4-0.496-2.783-0.563-4.147v0c-0.394-8.104 3.071-12.334 10.396-12.691v0c1.751-0.085 3.32 0.399 4.706 1.453 1.386 1.054 2.123 2.473 2.209 4.258v0c0.047 0.972-0.181 1.844-0.683 2.616-0.496 0.772-1.117 1.396-1.861 1.873-0.738 0.47-1.691 0.913-2.859 1.33-1.168 0.417-2.201 0.728-3.098 0.932-0.898 0.204-1.974 0.437-3.23 0.698-1.256 0.255-2.124 0.44-2.606 0.557v0c0.079 0.944 0.176 1.77 0.291 2.479 0.115 0.709 0.315 1.47 0.601 2.283 0.28 0.814 0.636 1.481 1.069 2.001 0.432 0.513 1.013 0.932 1.743 1.257 0.73 0.318 1.581 0.454 2.553 0.406v0c1.172-0.057 2.595-0.233 4.269-0.528 1.675-0.288 3.162-0.578 4.463-0.868 1.307-0.291 1.991-0.437 2.051-0.44zM86.904-12.925v0c4.354-1.473 7.905-2.978 10.653-4.514v0c-0.279-1.061-0.623-1.825-1.033-2.292-0.417-0.467-1.011-0.682-1.783-0.644v0c-1.984 0.097-3.746 0.866-5.284 2.309-1.539 1.437-2.39 3.15-2.553 5.141zM109.137-18.137v0l0.514 19.284c-0.482 0.261-1.063 0.398-1.743 0.41v0c-0.52 0.009-1.105-0.061-1.754-0.211v0c0.059-2.048 0.055-6.075-0.013-12.081-0.068-6.006-0.012-10.455 0.165-13.345v0l2.198 0.453 0.196 2.717c1.689-1.842 3.654-2.782 5.894-2.819v0c1.133-0.019 2.044 0.046 2.733 0.194 0.683 0.149 1.346 0.534 1.99 1.157 0.644 0.623 1.138 1.451 1.482 2.485 0.337 1.034 0.652 2.516 0.945 4.445 0.292 1.929 0.517 4.182 0.674 6.759 0.157 2.578 0.285 5.829 0.384 9.755v0c-0.192 0.07-0.565 0.11-1.119 0.119v0c-1.167 0.02-2.079-0.112-2.737-0.394v0c-0.135-0.518-0.213-1.377-0.233-2.576v0c-0.01-0.62-0.007-1.78 0.012-3.481 0.025-1.707 0.029-3.031 0.013-3.971v0c-0.026-1.56-0.106-2.922-0.239-4.086-0.133-1.171-0.366-2.321-0.698-3.449-0.326-1.128-0.81-1.997-1.454-2.606-0.644-0.609-1.435-0.906-2.375-0.89v0c-1.073 0.018-1.908 0.115-2.506 0.292-0.597 0.17-1.017 0.37-1.26 0.601-0.236 0.231-0.593 0.643-1.069 1.238zM139.994-22.165v0l0.504 2.198c-0.881 0.052-2.23 0.2-4.048 0.443-1.824 0.25-3.194 0.397-4.108 0.442v0c0.148 1.143 0.223 2.637 0.225 4.484 0.003 1.854 0.016 3.454 0.04 4.802 0.024 1.347 0.149 2.696 0.373 4.046 0.218 1.35 0.704 2.392 1.458 3.125 0.748 0.726 1.772 1.1 3.072 1.121v0c0.973 0.016 2.194-0.194 3.661-0.629v0c0.6 1.217 1.042 2.101 1.326 2.652v0c-2.581 0.871-5.189 1.284-7.821 1.241v0c-0.973-0.016-1.812-0.323-2.515-0.922-0.704-0.592-1.245-1.331-1.624-2.218-0.372-0.88-0.667-1.998-0.884-3.355-0.224-1.351-0.36-2.626-0.407-3.827-0.04-1.201-0.047-2.581-0.021-4.141v0c0.014-0.84 0.04-2.006 0.078-3.499 0.038-1.493 0.062-2.516 0.071-3.069v0c-0.321 0.028-1.084 0.039-2.29 0.031-1.2-0.007-1.897-0.012-2.09-0.014v0c-0.191-2.177-0.285-3.299-0.285-3.365v0c0.226 0.07 0.598 0.11 1.119 0.118v0c0.293 0.005 0.764-0.011 1.411-0.046 0.654-0.036 1.141-0.051 1.461-0.046v0c0.133 0.002 0.303 0.012 0.509 0.028 0.213 0.017 0.353 0.026 0.42 0.027v0c0.186-3.564 0.381-6.465 0.585-8.701v0l2.18 0.566c0.02 0.78 0.03 1.617 0.029 2.511 0.005 0.894 0.005 1.884 0 2.97-0.005 1.087-0.012 1.923-0.021 2.51v0c0.845 0.081 2.111 0.165 3.796 0.254 1.692 0.095 2.957 0.183 3.796 0.263zM157.748 0.869v0l2.583-34.184c0.441-1.173 1.876-1.676 4.303-1.509v0c2.235 0.153 4.269 0.593 6.104 1.32 1.841 0.728 3.352 1.84 4.533 3.338 1.187 1.498 1.713 3.235 1.577 5.21v0c-0.106 1.55-0.592 3.03-1.457 4.441-0.858 1.405-1.853 2.279-2.986 2.622v0c2.055 0.435 3.639 1.796 4.752 4.084 1.113 2.288 1.566 4.939 1.359 7.952v0c-0.14 2.042-1.073 3.759-2.799 5.15-1.72 1.399-3.68 2.357-5.88 2.875-2.2 0.511-4.401 0.691-6.602 0.54v0c-2.687-0.184-4.516-0.797-5.487-1.839zM162.893-15.859v0c-0.153 2.235-0.494 6.719-1.022 13.452v0c0.896 1.164 2.105 1.798 3.629 1.902v0c2.009 0.138 4.011-0.56 6.007-2.094 1.99-1.541 3.05-3.266 3.181-5.174v0c0.162-2.368-0.506-4.271-2.004-5.711-1.492-1.432-3.485-2.234-5.98-2.404v0c-1.656-0.113-2.926-0.104-3.811 0.029zM163.04-19.457v0l3.016 0.156c2.075 0.142 3.713-0.357 4.914-1.497 1.201-1.141 1.859-2.552 1.974-4.235v0c0.118-1.716-0.35-3.235-1.402-4.557-1.045-1.328-2.572-2.061-4.58-2.198v0c-0.905-0.062-1.985 0.058-3.242 0.359v0c-0.076 1.986-0.204 4.436-0.384 7.351-0.186 2.914-0.285 4.454-0.296 4.621zM182.405-6.417v0c0.136-1.293 0.423-2.717 0.862-4.273 0.438-1.549 1.024-3.167 1.757-4.853 0.734-1.686 1.712-3.054 2.936-4.106 1.216-1.045 2.55-1.491 4.002-1.338v0c3.103 0.326 5.442 1.983 7.018 4.971 1.582 2.995 2.193 6.203 1.834 9.624v0c-0.153 1.452-0.457 2.881-0.914 4.288-0.462 1.399-1.088 2.761-1.878 4.086-0.795 1.317-1.845 2.373-3.148 3.168-1.31 0.794-2.778 1.169-4.402 1.126v0c-2.93-0.697-5.091-2.205-6.483-4.523-1.385-2.318-1.913-5.041-1.584-8.17zM191.995-18.44v0c-1.148 0.013-2.211 0.947-3.19 2.802-0.979 1.854-1.678 3.681-2.095 5.481-0.417 1.8-0.699 3.396-0.845 4.787v0c-0.19 1.81 0.191 3.539 1.143 5.189 0.953 1.649 2.125 2.546 3.518 2.692v0c1.001 0.105 1.944-0.188 2.827-0.879 0.89-0.691 1.631-1.581 2.222-2.672 0.585-1.098 1.061-2.218 1.429-3.359 0.361-1.135 0.588-2.154 0.684-3.055v0c0.279-2.652-0.075-5.025-1.062-7.12-0.986-2.095-2.53-3.383-4.631-3.866zM204.428-3.963v0c0.181-1.287 0.518-2.701 1.01-4.241 0.491-1.533 1.133-3.129 1.925-4.789 0.792-1.659 1.818-2.993 3.077-4.001 1.252-1.002 2.6-1.402 4.046-1.198v0c3.09 0.434 5.37 2.172 6.841 5.213 1.477 3.049 1.976 6.276 1.497 9.682v0c-0.203 1.446-0.557 2.864-1.062 4.254-0.511 1.382-1.184 2.722-2.019 4.018-0.841 1.289-1.927 2.308-3.257 3.056-1.337 0.748-2.817 1.072-4.439 0.972v0c-2.904-0.799-5.011-2.381-6.321-4.746-1.304-2.364-1.736-5.105-1.298-8.22zM214.431-15.645v0c-1.147-0.027-2.243 0.87-3.286 2.689-1.043 1.819-1.805 3.621-2.285 5.405-0.48 1.784-0.817 3.369-1.011 4.755v0c-0.253 1.802 0.067 3.544 0.962 5.225 0.895 1.681 2.035 2.619 3.422 2.813v0c0.997 0.14 1.949-0.12 2.856-0.78 0.914-0.659 1.685-1.524 2.313-2.593 0.623-1.077 1.138-2.18 1.546-3.307 0.4-1.122 0.663-2.132 0.789-3.03v0c0.371-2.641 0.1-5.025-0.812-7.152-0.913-2.128-2.411-3.469-4.494-4.025zM242.059 12.546v0l-4.395-0.875c-0.974-1.39-2.26-3.586-3.858-6.587-1.599-2.995-2.617-4.846-3.055-5.553v0l-1.736 9.879c-0.457 0.908-1.1 1.289-1.928 1.143v0c-0.578-0.102-1.089-0.428-1.533-0.98-0.45-0.56-0.678-1.185-0.685-1.877v0c0.671-3.28 1.679-8.741 3.023-16.384 1.344-7.643 2.373-13.114 3.088-16.413v0l2.816 1.134c-0.192 1.286-0.598 3.919-1.216 7.899-0.618 3.98-1.066 6.95-1.343 8.912v0l13.152-6.49 0.439 2.3c-3.428 1.672-7.542 4.164-12.341 7.476v0c0.697 1.077 2.21 3.675 4.538 7.794 2.322 4.118 4 6.992 5.034 8.622z" opacity="1" transform="matrix(1,0,0,1,0,0)" fill="#233565" class="wordmark-text-0" data-fill-palette-color="primary" id="text-0"></path></svg></g></svg></g></svg></g></svg></g><g transform="matrix(1,0,0,1,125.79747003207744,0)"><svg viewBox="0 0 143.9250599358451 124.03497628350172" height="124.03497628350172" width="143.9250599358451"><g><svg xmlns="http://www.w3.org/2000/svg" xmlns:xlink="http://www.w3.org/1999/xlink" version="1.1" x="0" y="0" viewBox="4.601004123687744 9.000000953674316 91.32423400878906 78.70345306396484" enable-background="new 0 0 100 100" xml:space="preserve" height="124.03497628350172" width="143.9250599358451" class="icon-icon-0" data-fill-palette-color="accent" id="icon-0"><g fill="#8bd8bc" data-fill-palette-color="accent"><path fill-rule="evenodd" clip-rule="evenodd" d="M56.809 28.396c5.314 0 9.66-4.343 9.66-9.661 0-5.392-4.346-9.735-9.66-9.735-3.896 0-7.34 2.321-8.838 5.691-0.599 1.198-0.898 2.621-0.898 4.044 0 1.422 0.299 2.77 0.898 4.043C49.468 26.074 52.912 28.396 56.809 28.396zM68.439 66.737c1.287-3.343 2.109-6.596 3.402-10.109-4.418 0-6.973-0.146-11.33-0.031-3.445 0-4.902 1.977-6.025 4.374-2.17 5.69-4.343 11.456-6.516 17.147-1.085 2.968-2.278 5.981-3.371 8.952h11.947c2.398-7.02 4.762-13.554 7.562-20.333H68.439zM94.893 53.172c-0.311-0.77-0.664-1.52-1.037-2.26-0.223-0.444-1.34-1.927-1.254-2.373 0.9-4.643 1.93-9.307 2.828-13.95 0.756-3.659-0.803-5.954-2.973-6.853-2.846-1.198-4.572-1.886-7.342-3.084-1.199-0.524-2.398-1.049-3.67-1.572-3.67-1.798-6.143-2.282-9.811 0.224-6.891 4.343-14.584 9.294-21.474 13.713 0.9-2.396 2.298-5.325 3.199-7.723-1.873-0.672-3.516-1.421-5.389-2.17-0.299-0.15-0.599-0.225-0.898-0.375l-0.149 0.375c-2.138 4.518-4.911 9.987-6.56 14.479-1.092 3.415 2.628 6.088 5.994 4.999 0.075 0 10.525-4.801 14.792-6.673 4.793 5.466 9.51 11.008 14.301 16.475-2.395 1.497-2.926 1.913-4.041 5.316-2.965 8.451-5.93 16.902-8.895 25.352H74.98l7.131-20.083c0.748 0.075 2.18 0.199 3.004 0.199 2.367 0 4.678 0.065 6.824-1.118C96.557 63.523 96.598 57.445 94.893 53.172zM90.281 54.306h-7.49l2.324-12.356 0.373-1.871-0.373-0.524-5.244-7.49 5.244 1.274 2.77 0.599-3.508 19.329 5.914 0.008L90.281 54.306zM43.104 55.879c1.573 0.225 3.22 0.523 4.867 0.824 0.697 0.115 1.35 0.23 2.026 0.348l2.269-7.548c-1.597-0.353-31.729-6.375-45.482-9.127l-2.183 7.221c2.719 0.642 4.846 1.173 7.575 1.841-0.824 0.524-1.571 1.124-2.394 1.647 1.796 2.021 3.518 4.043 5.316 6.066 3.07-3.146 6.665-4.568 10.784-4.195 7.338 1.199 12.729 5.317 12.58 13.854 0.133 7.967-7.587 13.511-13.479 13.703-3.71-0.043-7.113-2.171-10.109-4.194-1.871 1.424-3.744 2.848-5.616 4.194 3.295 4.345 8.088 7.265 16.249 7.189 13.287-1.344 19.276-9.361 20.519-20.518C46.53 62.438 45.051 59.398 43.104 55.879z" fill="#8bd8bc" data-fill-palette-color="accent"></path></g></svg></g></svg></g><g></g></svg></g><defs></defs></svg><rect width="395.52" height="223.762968771025" fill="none" stroke="none" visibility="hidden"></rect></g></svg>